<?xml version="1.0" encoding="utf-8"?>
<!-- Generator: Adobe Illustrator 22.1.0, SVG Export Plug-In . SVG Version: 6.00 Build 0)  -->
<svg version="1.1" id="Capa_1" xmlns="http://www.w3.org/2000/svg" xmlns:xlink="http://www.w3.org/1999/xlink" x="0px" y="0px"
	 viewBox="0 0 1024 167" style="enable-background:new 0 0 1024 167;" xml:space="preserve">
<style type="text/css">
	.st0{fill:#E3E3E3;}
	.st1{fill:#FFE716;}
	.st2{fill:#FFCC00;}
	.st3{fill:#FFDA6D;}
	.st4{fill:none;stroke:#FFFFFF;stroke-width:0.5754;stroke-miterlimit:10;}
	.st5{fill:#010001;}
	.st6{fill:#FBD25E;}
	.st7{fill:#FFFFFF;}
	.st8{fill:#F9C50C;}
	.st9{fill:none;stroke:#080808;stroke-width:0.7448;stroke-linecap:round;stroke-miterlimit:10;}
	.st10{fill:#DADADA;}
	.st11{fill:none;stroke:#B0B0B0;stroke-width:0.7839;stroke-linecap:round;stroke-miterlimit:10;}
	.st12{fill:#FFDE00;}
	.st13{fill:#FBBA00;}
	.st14{fill:none;stroke:#080808;stroke-width:0.7839;stroke-linecap:round;stroke-miterlimit:10;}
	.st15{fill:#FFDE75;}
	.st16{fill:#FFD647;}
	.st17{fill:#FFCD00;}
	.st18{fill:#1D1D1B;}
	.st19{font-family:'FrutigerLTStd-BoldCn';}
	.st20{font-size:45.9172px;}
	.st21{fill:none;stroke:#080808;stroke-width:2;stroke-linecap:round;stroke-miterlimit:10;}
</style>
<polygon class="st0" points="657,0.1 721,166.8 997,166.8 932,0.1 "/>
<polygon class="st1" points="662,0.1 726,166.8 976,166.8 911,0.1 "/>
<polygon class="st2" points="675,0.1 739,166.8 994,166.8 929,0.1 "/>
<polygon class="st3" points="779,0.1 843,166.8 979,166.8 913,0.1 "/>
<g>
	<g>
		<line class="st4" x1="742" y1="-2" x2="808.3" y2="167.3"/>
		<line class="st4" x1="759.8" y1="-1.9" x2="826.1" y2="167.4"/>
		<line class="st4" x1="777.7" y1="-1.9" x2="844" y2="167.4"/>
		<line class="st4" x1="795.5" y1="-1.8" x2="861.8" y2="167.5"/>
		<line class="st4" x1="813.3" y1="-1.8" x2="879.7" y2="167.5"/>
		<line class="st4" x1="831.2" y1="-1.7" x2="897.5" y2="167.6"/>
		<line class="st4" x1="849" y1="-1.7" x2="915.4" y2="167.6"/>
		<line class="st4" x1="866.9" y1="-1.6" x2="933.2" y2="167.7"/>
		<line class="st4" x1="884.7" y1="-1.6" x2="951" y2="167.7"/>
		<line class="st4" x1="902.6" y1="-1.5" x2="968.9" y2="167.7"/>
		<line class="st4" x1="920.4" y1="-1.5" x2="986.7" y2="167.8"/>
		<line class="st4" x1="938.3" y1="-1.4" x2="1004.6" y2="167.8"/>
		<line class="st4" x1="956.1" y1="-1.4" x2="1022.4" y2="167.9"/>
		<line class="st4" x1="973.9" y1="-1.4" x2="1040.3" y2="167.9"/>
		<line class="st4" x1="991.8" y1="-1.3" x2="1058.1" y2="168"/>
		<line class="st4" x1="1009.6" y1="-1.3" x2="1076" y2="168"/>
		<line class="st4" x1="733.2" y1="-2" x2="799.5" y2="167.3"/>
		<line class="st4" x1="751" y1="-1.9" x2="817.3" y2="167.4"/>
		<line class="st4" x1="768.9" y1="-1.9" x2="835.2" y2="167.4"/>
		<line class="st4" x1="786.7" y1="-1.8" x2="853" y2="167.4"/>
		<line class="st4" x1="804.5" y1="-1.8" x2="870.9" y2="167.5"/>
		<line class="st4" x1="822.4" y1="-1.7" x2="888.7" y2="167.5"/>
		<line class="st4" x1="840.2" y1="-1.7" x2="906.6" y2="167.6"/>
		<line class="st4" x1="858.1" y1="-1.7" x2="924.4" y2="167.6"/>
		<line class="st4" x1="875.9" y1="-1.6" x2="942.3" y2="167.7"/>
		<line class="st4" x1="893.8" y1="-1.6" x2="960.1" y2="167.7"/>
		<line class="st4" x1="911.6" y1="-1.5" x2="977.9" y2="167.8"/>
		<line class="st4" x1="929.5" y1="-1.5" x2="995.8" y2="167.8"/>
		<line class="st4" x1="947.3" y1="-1.4" x2="1013.6" y2="167.9"/>
		<line class="st4" x1="965.1" y1="-1.4" x2="1031.5" y2="167.9"/>
		<line class="st4" x1="983" y1="-1.3" x2="1049.3" y2="168"/>
		<line class="st4" x1="1000.8" y1="-1.3" x2="1067.2" y2="168"/>
		<line class="st4" x1="1018.7" y1="-1.2" x2="1085" y2="168"/>
	</g>
</g>
<g>
	<g>
		<line class="st4" x1="-977" y1="170" x2="-910.7" y2="339.3"/>
		<line class="st4" x1="-959.2" y1="170.1" x2="-892.9" y2="339.4"/>
		<line class="st4" x1="-941.3" y1="170.1" x2="-875" y2="339.4"/>
		<line class="st4" x1="-923.5" y1="170.2" x2="-857.2" y2="339.5"/>
		<line class="st4" x1="-905.7" y1="170.2" x2="-839.3" y2="339.5"/>
		<line class="st4" x1="-887.8" y1="170.3" x2="-821.5" y2="339.6"/>
		<line class="st4" x1="-870" y1="170.3" x2="-803.6" y2="339.6"/>
		<line class="st4" x1="-852.1" y1="170.4" x2="-785.8" y2="339.7"/>
		<line class="st4" x1="-834.3" y1="170.4" x2="-768" y2="339.7"/>
		<line class="st4" x1="-816.4" y1="170.5" x2="-750.1" y2="339.7"/>
		<line class="st4" x1="-798.6" y1="170.5" x2="-732.3" y2="339.8"/>
		<line class="st4" x1="-780.7" y1="170.6" x2="-714.4" y2="339.8"/>
		<line class="st4" x1="-762.9" y1="170.6" x2="-696.6" y2="339.9"/>
		<line class="st4" x1="-745.1" y1="170.6" x2="-678.7" y2="339.9"/>
		<line class="st4" x1="-727.2" y1="170.7" x2="-660.9" y2="340"/>
		<line class="st4" x1="-709.4" y1="170.7" x2="-643" y2="340"/>
		<line class="st4" x1="-691.5" y1="170.8" x2="-625.2" y2="340.1"/>
		<line class="st4" x1="-673.7" y1="170.8" x2="-607.4" y2="340.1"/>
		<line class="st4" x1="-655.8" y1="170.9" x2="-589.5" y2="340.2"/>
		<line class="st4" x1="-638" y1="170.9" x2="-571.7" y2="340.2"/>
		<line class="st4" x1="-620.2" y1="171" x2="-553.8" y2="340.3"/>
		<line class="st4" x1="-602.3" y1="171" x2="-536" y2="340.3"/>
		<line class="st4" x1="-584.5" y1="171.1" x2="-518.1" y2="340.3"/>
		<line class="st4" x1="-566.6" y1="171.1" x2="-500.3" y2="340.4"/>
		<line class="st4" x1="-548.8" y1="171.2" x2="-482.4" y2="340.4"/>
		<line class="st4" x1="-530.9" y1="171.2" x2="-464.6" y2="340.5"/>
		<line class="st4" x1="-513.1" y1="171.2" x2="-446.8" y2="340.5"/>
		<line class="st4" x1="-495.2" y1="171.3" x2="-428.9" y2="340.6"/>
		<line class="st4" x1="-477.4" y1="171.3" x2="-411.1" y2="340.6"/>
		<line class="st4" x1="-459.6" y1="171.4" x2="-393.2" y2="340.7"/>
		<line class="st4" x1="-441.7" y1="171.4" x2="-375.4" y2="340.7"/>
		<line class="st4" x1="-423.9" y1="171.5" x2="-357.5" y2="340.8"/>
		<line class="st4" x1="-406" y1="171.5" x2="-339.7" y2="340.8"/>
		<line class="st4" x1="-388.2" y1="171.6" x2="-321.8" y2="340.9"/>
		<line class="st4" x1="-370.3" y1="171.6" x2="-304" y2="340.9"/>
		<line class="st4" x1="-352.5" y1="171.7" x2="-286.2" y2="341"/>
		<line class="st4" x1="-334.6" y1="171.7" x2="-268.3" y2="341"/>
		<line class="st4" x1="-316.8" y1="171.8" x2="-250.5" y2="341"/>
		<line class="st4" x1="-299" y1="171.8" x2="-232.6" y2="341.1"/>
		<line class="st4" x1="-281.1" y1="171.9" x2="-214.8" y2="341.1"/>
		<line class="st4" x1="-985.8" y1="170" x2="-919.5" y2="339.3"/>
		<line class="st4" x1="-968" y1="170.1" x2="-901.7" y2="339.4"/>
		<line class="st4" x1="-950.1" y1="170.1" x2="-883.8" y2="339.4"/>
		<line class="st4" x1="-932.3" y1="170.2" x2="-866" y2="339.4"/>
		<line class="st4" x1="-914.5" y1="170.2" x2="-848.1" y2="339.5"/>
		<line class="st4" x1="-896.6" y1="170.3" x2="-830.3" y2="339.5"/>
		<line class="st4" x1="-878.8" y1="170.3" x2="-812.4" y2="339.6"/>
		<line class="st4" x1="-860.9" y1="170.3" x2="-794.6" y2="339.6"/>
		<line class="st4" x1="-843.1" y1="170.4" x2="-776.7" y2="339.7"/>
		<line class="st4" x1="-825.2" y1="170.4" x2="-758.9" y2="339.7"/>
		<line class="st4" x1="-807.4" y1="170.5" x2="-741.1" y2="339.8"/>
		<line class="st4" x1="-789.5" y1="170.5" x2="-723.2" y2="339.8"/>
		<line class="st4" x1="-771.7" y1="170.6" x2="-705.4" y2="339.9"/>
		<line class="st4" x1="-753.9" y1="170.6" x2="-687.5" y2="339.9"/>
		<line class="st4" x1="-736" y1="170.7" x2="-669.7" y2="340"/>
		<line class="st4" x1="-718.2" y1="170.7" x2="-651.8" y2="340"/>
		<line class="st4" x1="-700.3" y1="170.8" x2="-634" y2="340"/>
		<line class="st4" x1="-682.5" y1="170.8" x2="-616.2" y2="340.1"/>
		<line class="st4" x1="-664.6" y1="170.9" x2="-598.3" y2="340.1"/>
		<line class="st4" x1="-646.8" y1="170.9" x2="-580.5" y2="340.2"/>
		<line class="st4" x1="-628.9" y1="170.9" x2="-562.6" y2="340.2"/>
		<line class="st4" x1="-611.1" y1="171" x2="-544.8" y2="340.3"/>
		<line class="st4" x1="-593.3" y1="171" x2="-526.9" y2="340.3"/>
		<line class="st4" x1="-575.4" y1="171.1" x2="-509.1" y2="340.4"/>
		<line class="st4" x1="-557.6" y1="171.1" x2="-491.2" y2="340.4"/>
		<line class="st4" x1="-539.7" y1="171.2" x2="-473.4" y2="340.5"/>
		<line class="st4" x1="-521.9" y1="171.2" x2="-455.6" y2="340.5"/>
		<line class="st4" x1="-504" y1="171.3" x2="-437.7" y2="340.6"/>
		<line class="st4" x1="-486.2" y1="171.3" x2="-419.9" y2="340.6"/>
		<line class="st4" x1="-468.4" y1="171.4" x2="-402" y2="340.6"/>
		<line class="st4" x1="-450.5" y1="171.4" x2="-384.2" y2="340.7"/>
		<line class="st4" x1="-432.7" y1="171.5" x2="-366.3" y2="340.7"/>
		<line class="st4" x1="-414.8" y1="171.5" x2="-348.5" y2="340.8"/>
		<line class="st4" x1="-397" y1="171.6" x2="-330.6" y2="340.8"/>
		<line class="st4" x1="-379.1" y1="171.6" x2="-312.8" y2="340.9"/>
		<line class="st4" x1="-361.3" y1="171.6" x2="-295" y2="340.9"/>
		<line class="st4" x1="-343.4" y1="171.7" x2="-277.1" y2="341"/>
		<line class="st4" x1="-325.6" y1="171.7" x2="-259.3" y2="341"/>
		<line class="st4" x1="-307.8" y1="171.8" x2="-241.4" y2="341.1"/>
		<line class="st4" x1="-289.9" y1="171.8" x2="-223.6" y2="341.1"/>
	</g>
</g>
<g>
	<g>
		<path class="st5" d="M-222,524.8L-222,524.8c0,1.8-1.5,3.2-3.4,3.2l-12.1-0.1c-1.8,0-3.3-1.5-3.2-3.3l0,0c0-1.8,1.5-3.2,3.4-3.2
			l12.1,0.1C-223.4,521.5-222,523-222,524.8z"/>
		<path class="st6" d="M-367.1,542.7L-367.1,542.7c0,1.8-1.5,3.2-3.4,3.2l-12.1-0.1c-1.8,0-3.3-1.5-3.2-3.3l0,0
			c0-1.8,1.5-3.2,3.4-3.2l12.1,0.1C-368.6,539.4-367.1,540.9-367.1,542.7z"/>
		<g>
			<path class="st7" d="M-332.7,555.1c1.8,0,3.3,1.5,3.2,3.3l0,0c0,1.8-1.5,3.2-3.4,3.2l-28.8-0.4c-0.7,0-1.5,0.2-2.1,0.6
				c-0.8,0.5-1.3,1.4-1.4,2.4c-0.1,1.9,1.4,3.4,3.2,3.4l61.9,0.8c1.7,0,3.2-1.2,3.4-2.8c0.3-2-1.3-3.6-3.2-3.7l-10.6-0.1
				c-1.7,0-3.2-1.3-3.3-2.9c-0.2-1.8,1.1-3.2,2.8-3.5l17.4,0.2c0.2,0,0.4,0,0.6,0l22.4,0.3c1.8,0,3.3-1.4,3.4-3.2l0,0
				c0-1.5-1-2.7-2.3-3.1l-34.7-0.4c-1.8,0-3.3-1.5-3.2-3.3l0,0c0-1.8,1.5-3.2,3.4-3.2l44.9,0.5c1.7,0,3.2-1.2,3.3-2.9
				c0-0.1,0-0.1,0-0.2l0,0c0-1.8,1.5-3.2,3.4-3.2l16.3,0.2c1.7,0,3.2-1.2,3.4-2.8c0.3-2-1.3-3.6-3.2-3.7l-62-0.8
				c-1.8,0-3.3,1.4-3.4,3.2c-0.1,1.8-1.5,3.3-3.4,3.2l-16.5-0.2c-1.8,0-3.2,1.4-3.3,3.1l0,0c0,1.7-1.5,3.1-3.3,3.1l-4.4-0.1
				c-1.8,0-3.3,1.4-3.4,3.2c-0.1,1.8-1.6,3.2-3.4,3.2l-14.8-0.2c-2.7,0-4.9,0.6-4.9,3.2c0,1.1,0.9,3.2,3.2,3.2L-332.7,555.1z"/>
		</g>
		<g>
			<path class="st6" d="M-463.3,548.6L-463.3,548.6c0,1.8,1.4,3.3,3.2,3.3l8.9,0.1c1.8,0,3.3,1.5,3.2,3.3c0,1.8-1.5,3.2-3.4,3.2
				l-35.6-0.4l-2.3,0c-1.8,0-3.3,1.4-3.4,3.2c0,1.8,1.4,3.3,3.2,3.3l62,0.8c1.8,0,3.3-1.4,3.4-3.2c0-1.8-1.4-3.3-3.2-3.3l-10.7-0.1
				c-1.8,0-3.3-1.5-3.2-3.3c0-1.8,1.5-3.2,3.4-3.2l13,0.2l26.7,0.3c1.8,0,3.3-1.4,3.4-3.2l0,0c0-1.8-1.4-3.3-3.2-3.3l-62-0.8
				C-461.8,545.4-463.3,546.8-463.3,548.6z"/>
		</g>
		<g>
			<path class="st6" d="M-272,558.6L-272,558.6c0,1.8,1.4,3.3,3.2,3.3l8.9,0.1c1.8,0,3.3,1.5,3.2,3.3c0,1.8-1.5,3.2-3.4,3.2
				l-35.6-0.4l-2.3,0c-1.8,0-3.3,1.4-3.4,3.2c0,1.8,1.4,3.3,3.2,3.3l62,0.8c1.8,0,3.3-1.4,3.4-3.2c0-1.8-1.4-3.3-3.2-3.3l-10.7-0.1
				c-1.8,0-3.3-1.5-3.2-3.3c0-1.8,1.5-3.2,3.4-3.2l13,0.2l26.7,0.3c1.8,0,3.3-1.4,3.4-3.2l0,0c0-1.8-1.4-3.3-3.2-3.3l-62-0.8
				C-270.5,555.4-272,556.8-272,558.6z"/>
		</g>
		<path class="st5" d="M-526.9,560.2L-526.9,560.2c0,1.8-1.5,3.2-3.4,3.2l-12.1-0.1c-1.8,0-3.3-1.5-3.2-3.3l0,0
			c0-1.8,1.5-3.2,3.4-3.2l12.1,0.1C-528.3,556.9-526.9,558.4-526.9,560.2z"/>
		<path class="st6" d="M-438.9,580.8L-438.9,580.8c0,1.8-1.5,3.2-3.4,3.2l-12.1-0.1c-1.8,0-3.3-1.5-3.2-3.3l0,0
			c0-1.8,1.5-3.2,3.4-3.2l12.1,0.1C-440.3,577.5-438.9,579-438.9,580.8z"/>
		<g>
			<path class="st8" d="M-428.4,573.5c1.8,0,3.2,1.4,3.1,3.2c0,1.8,1.4,3.2,3.2,3.2l62,0.8c1.8,0,3.3-1.4,3.4-3.2l0,0
				c0-1.8-1.4-3.3-3.2-3.3l-8.8-0.1c-1.8,0-3.3-1.4-3.3-3.1c0-1.9,1.5-3.4,3.4-3.3l11.1,0.1l0,0l24.5,0.3l3.9,0c0,0,0,0,0.1,0
				c3.3-2.8,1.4-6.4-1.5-6.5l-43.2-0.5c-1.8,0-3.3-1.5-3.2-3.2c0-1.8-1.4-3.3-3.2-3.3l-61.9-0.8c-1.8,0-3.3,1.3-3.5,3
				c-0.1,1.9,1.4,3.4,3.2,3.4l41.5,0.5c1.8,0,3.3,1.5,3.2,3.3l0,0c0,1.8-1.5,3.2-3.4,3.2l-18.4-0.2l-15.6-0.1
				c-1.8,0-3.3,1.4-3.4,3.2l0,0c0,1.8,1.4,3.3,3.3,3.3L-428.4,573.5z"/>
		</g>
		<g>
			<line class="st9" x1="-215.9" y1="542.7" x2="-249.5" y2="542.3"/>
			<line class="st9" x1="-253.6" y1="542.5" x2="-266.4" y2="542.3"/>
		</g>
		<g>
			<line class="st9" x1="-185.4" y1="567.7" x2="-219" y2="567.3"/>
			<line class="st9" x1="-223.1" y1="567.5" x2="-236" y2="567.4"/>
		</g>
		<g>
			<line class="st9" x1="-218" y1="576.6" x2="-230.9" y2="576.5"/>
		</g>
		<g>
			<line class="st9" x1="-260.3" y1="552.1" x2="-273.2" y2="551.9"/>
		</g>
		<g>
			<line class="st9" x1="-395.6" y1="567.4" x2="-408.4" y2="567.3"/>
		</g>
		<g>
			<line class="st9" x1="-459.1" y1="562" x2="-492.7" y2="561.6"/>
			<line class="st9" x1="-496.8" y1="561.8" x2="-509.6" y2="561.6"/>
		</g>
		<g>
			<line class="st9" x1="-258.3" y1="572.4" x2="-338.7" y2="571.4"/>
			<line class="st9" x1="-348.5" y1="571.5" x2="-379.3" y2="571.2"/>
		</g>
		<g>
			<line class="st9" x1="-312.7" y1="543.8" x2="-346.3" y2="543.4"/>
			<line class="st9" x1="-350.4" y1="543.6" x2="-413.1" y2="542.9"/>
		</g>
		<path class="st7" d="M-370.2,560.7L-370.2,560.7c0,1.8-1.5,3.2-3.4,3.2l-12.1-0.1c-1.8,0-3.3-1.5-3.2-3.3l0,0
			c0-1.8,1.5-3.2,3.4-3.2l12.1,0.1C-371.6,557.5-370.2,558.9-370.2,560.7z"/>
	</g>
	<g>
		<path class="st5" d="M-567.7,734.8L-567.7,734.8c0,1.8-1.5,3.2-3.4,3.2l-12.1-0.1c-1.8,0-3.3-1.5-3.2-3.3l0,0
			c0-1.8,1.5-3.2,3.4-3.2l12.1,0.1C-569.1,731.5-567.6,733-567.7,734.8z"/>
		<path class="st6" d="M-444.6,708.8L-444.6,708.8c0,1.8-1.5,3.2-3.4,3.2l-12.1-0.1c-1.8,0-3.3-1.5-3.2-3.3h0c0-1.8,1.5-3.2,3.4-3.2
			l12.1,0.1C-446,705.6-444.6,707-444.6,708.8z"/>
		<path class="st6" d="M-490.6,702.3L-490.6,702.3c0,1.8-1.5,3.2-3.4,3.2l-12.1-0.1c-1.8,0-3.3-1.5-3.2-3.3l0,0
			c0-1.8,1.5-3.2,3.4-3.2l12.1,0.1C-492.1,699-490.6,700.5-490.6,702.3z"/>
		<g>
			<path class="st7" d="M-444.2,728.4c1.8,0,3.3,1.5,3.2,3.3l0,0c0,1.8-1.5,3.2-3.4,3.2l-28.8-0.4c-0.7,0-1.5,0.2-2.1,0.6
				c-0.8,0.5-1.3,1.4-1.4,2.4c-0.1,1.9,1.4,3.4,3.2,3.4l61.9,0.8c1.7,0,3.2-1.2,3.4-2.8c0.3-2-1.3-3.6-3.2-3.7l-10.6-0.1
				c-1.7,0-3.2-1.3-3.3-2.9c-0.2-1.8,1.1-3.2,2.8-3.5l17.4,0.2c0.2,0,0.4,0,0.6,0l22.4,0.3c1.8,0,3.3-1.4,3.4-3.2l0,0
				c0-1.5-1-2.7-2.3-3.1l-34.7-0.4c-1.8,0-3.3-1.5-3.2-3.3l0,0c0-1.8,1.5-3.2,3.4-3.2l44.9,0.5c1.7,0,3.2-1.2,3.3-2.9
				c0-0.1,0-0.1,0-0.2l0,0c0-1.8,1.5-3.2,3.4-3.2l16.3,0.2c1.7,0,3.2-1.2,3.4-2.8c0.3-2-1.3-3.6-3.2-3.7l-62-0.8
				c-1.8,0-3.3,1.4-3.4,3.2c-0.1,1.8-1.5,3.3-3.4,3.2l-16.5-0.2c-1.8,0-3.2,1.4-3.3,3.1l0,0c0,1.7-1.5,3.1-3.3,3.1l-4.4-0.1
				c-1.8,0-3.3,1.4-3.4,3.2c-0.1,1.8-1.6,3.2-3.4,3.2l-14.8-0.2c-2.7,0-4.9,0.6-4.9,3.2c0,1.1,0.9,3.2,3.2,3.2L-444.2,728.4z"/>
		</g>
		<g>
			<path class="st5" d="M-572.1,699.9L-572.1,699.9c0,1.8,1.4,3.3,3.2,3.3l8.9,0.1c1.8,0,3.3,1.5,3.2,3.3c0,1.8-1.5,3.2-3.4,3.2
				l-35.6-0.4l-2.3,0c-1.8,0-3.3,1.4-3.4,3.2c0,1.8,1.4,3.3,3.2,3.3l62,0.8c1.8,0,3.3-1.4,3.4-3.2c0-1.8-1.4-3.3-3.2-3.3l-10.7-0.1
				c-1.8,0-3.3-1.5-3.2-3.3c0-1.8,1.5-3.2,3.4-3.2l13,0.2l26.7,0.3c1.8,0,3.3-1.4,3.4-3.2l0,0c0-1.8-1.4-3.3-3.2-3.3l-62-0.8
				C-570.5,696.7-572,698.2-572.1,699.9z"/>
		</g>
		<g>
			<path class="st6" d="M-383.5,731.9L-383.5,731.9c0,1.8,1.4,3.3,3.2,3.3l8.9,0.1c1.8,0,3.3,1.5,3.2,3.3c0,1.8-1.5,3.2-3.4,3.2
				l-35.6-0.4l-2.3,0c-1.8,0-3.3,1.4-3.4,3.2c0,1.8,1.4,3.3,3.2,3.3l62,0.8c1.8,0,3.3-1.4,3.4-3.2s-1.4-3.3-3.2-3.3l-10.7-0.1
				c-1.8,0-3.3-1.5-3.2-3.3c0-1.8,1.5-3.2,3.4-3.2l13,0.2l26.7,0.3c1.8,0,3.3-1.4,3.4-3.2l0,0c0-1.8-1.4-3.3-3.2-3.3l-62-0.8
				C-382,728.7-383.5,730.1-383.5,731.9z"/>
		</g>
		<path class="st5" d="M-286.2,719.5L-286.2,719.5c0,1.8-1.5,3.2-3.4,3.2l-12.1-0.1c-1.8,0-3.3-1.5-3.2-3.3l0,0
			c0-1.8,1.5-3.2,3.4-3.2l12.1,0.1C-287.7,716.3-286.2,717.7-286.2,719.5z"/>
		<path class="st6" d="M-540.7,754.1L-540.7,754.1c0,1.8-1.5,3.2-3.4,3.2l-12.1-0.1c-1.8,0-3.3-1.5-3.2-3.3l0,0
			c0-1.8,1.5-3.2,3.4-3.2l12.1,0.1C-542.1,750.9-540.6,752.3-540.7,754.1z"/>
		<g>
			<path class="st6" d="M-541.9,740.3c1.8,0,3.2,1.4,3.1,3.2c0,1.8,1.4,3.2,3.2,3.2l62,0.8c1.8,0,3.3-1.4,3.4-3.2h0
				c0-1.8-1.4-3.3-3.2-3.3l-8.8-0.1c-1.8,0-3.3-1.4-3.3-3.1c0-1.9,1.5-3.4,3.4-3.3l11.1,0.1l0,0l24.5,0.3l3.9,0c0,0,0,0,0.1,0
				c3.3-2.8,1.4-6.4-1.5-6.5l-43.2-0.5c-1.8,0-3.3-1.5-3.2-3.2c0-1.8-1.4-3.3-3.2-3.3l-61.9-0.8c-1.8,0-3.3,1.3-3.5,3
				c-0.1,1.9,1.4,3.4,3.2,3.4l41.5,0.5c1.8,0,3.3,1.5,3.2,3.3h0c0,1.8-1.5,3.2-3.4,3.2l-18.4-0.2l-15.6-0.1c-1.8,0-3.3,1.4-3.4,3.2
				l0,0c0,1.8,1.4,3.3,3.3,3.3L-541.9,740.3z"/>
		</g>
		<g>
			<line class="st9" x1="-327.4" y1="716" x2="-360.9" y2="715.6"/>
			<line class="st9" x1="-365" y1="715.8" x2="-377.9" y2="715.6"/>
		</g>
		<g>
			<line class="st9" x1="-296.9" y1="741" x2="-330.5" y2="740.6"/>
			<line class="st9" x1="-334.5" y1="740.8" x2="-347.4" y2="740.7"/>
		</g>
		<g>
			<line class="st9" x1="-401.2" y1="753.7" x2="-434.8" y2="753.3"/>
			<line class="st9" x1="-438.9" y1="753.5" x2="-451.8" y2="753.4"/>
		</g>
		<g>
			<line class="st9" x1="-424.2" y1="717.1" x2="-457.7" y2="716.7"/>
			<line class="st9" x1="-461.8" y1="717" x2="-524.6" y2="716.2"/>
		</g>
		<path class="st5" d="M-479.7,758.7L-479.7,758.7c0,1.8-1.5,3.2-3.4,3.2l-62-0.8c-1.8,0-3.3-1.5-3.2-3.3l0,0c0-1.8,1.5-3.2,3.4-3.2
			l62,0.8C-481.2,755.4-479.7,756.9-479.7,758.7z"/>
	</g>
</g>
<g>
	<path class="st10" d="M811.6,148.7L811.6,148.7c-1.8,0.7-3.8-0.3-4.4-2.1l-4.5-11.9c-0.7-1.8,0.2-3.8,2-4.4l0,0
		c1.8-0.7,3.8,0.3,4.4,2.1l4.5,11.9C814.3,146,813.4,148,811.6,148.7z"/>
	<path class="st10" d="M738.3,13.4L738.3,13.4c-1.8,0.7-3.8-0.3-4.4-2.1l-4.5-11.9c-0.7-1.8,0.2-3.8,2-4.4l0,0
		c1.8-0.7,3.8,0.3,4.4,2.1l4.5,11.9C741,10.7,740.1,12.7,738.3,13.4z"/>
	<g>
		<path class="st10" d="M739.4,51.9c0.7,1.8-0.2,3.8-2,4.4l0,0c-1.8,0.7-3.8-0.3-4.4-2.1l-10.7-28.4c-0.3-0.7-0.8-1.4-1.4-1.8
			c-0.8-0.5-1.9-0.7-2.8-0.4c-1.9,0.6-2.8,2.6-2.1,4.5l23,60.9c0.6,1.7,2.4,2.7,4.1,2.3c2-0.5,3.1-2.6,2.3-4.5l-3.9-10.4
			c-0.6-1.7,0-3.6,1.6-4.4c1.7-0.8,3.6-0.1,4.5,1.4l6.5,17.1c0.1,0.2,0.2,0.4,0.3,0.5l8.3,22c0.7,1.8,2.7,2.7,4.4,2.1l0,0
			c1.5-0.5,2.3-2,2.2-3.5l-12.9-34.2c-0.7-1.8,0.2-3.8,2-4.4l0,0c1.8-0.7,3.8,0.3,4.4,2.1l16.7,44.2c0.6,1.7,2.4,2.6,4.1,2.2
			c0.1,0,0.1,0,0.2-0.1l0,0c1.8-0.7,3.8,0.3,4.4,2.1l6.1,16.1c0.6,1.7,2.4,2.7,4.1,2.3c2-0.5,3.1-2.6,2.3-4.5l-23.1-61
			c-0.7-1.8-2.6-2.7-4.4-2.1c-1.8,0.6-3.8-0.2-4.5-2.1l-6.2-16.3c-0.7-1.7-2.6-2.6-4.3-2l0,0c-1.7,0.6-3.6-0.3-4.3-2l-1.7-4.4
			c-0.7-1.8-2.7-2.7-4.5-2.1c-1.8,0.6-3.7-0.3-4.4-2.1l-5.5-14.6c-1-2.6-2.4-4.6-5-3.6c-1.1,0.4-2.8,2.1-1.9,4.4L739.4,51.9z"/>
	</g>
	<g>
		<path class="st10" d="M695.5-78.6L695.5-78.6c-1.8,0.7-2.7,2.6-2,4.4l3.3,8.8c0.7,1.8-0.2,3.8-2,4.4c-1.8,0.7-3.8-0.3-4.4-2.1
			l-13.3-35.1l-0.9-2.3c-0.7-1.8-2.7-2.7-4.4-2.1c-1.8,0.7-2.7,2.6-2,4.4l23.1,61c0.7,1.8,2.7,2.7,4.4,2.1c1.8-0.7,2.7-2.6,2-4.4
			l-4-10.5c-0.7-1.8,0.2-3.8,2-4.4c1.8-0.7,3.8,0.3,4.4,2.1l4.8,12.8l10,26.3c0.7,1.8,2.7,2.7,4.4,2.1l0,0c1.8-0.7,2.7-2.6,2-4.4
			l-23.1-61C699.3-78.3,697.3-79.2,695.5-78.6z"/>
	</g>
	<g>
		<path class="st10" d="M759.3,112.7L759.3,112.7c-1.8,0.7-2.7,2.6-2,4.4l3.3,8.8c0.7,1.8-0.2,3.8-2,4.4c-1.8,0.7-3.8-0.3-4.4-2.1
			l-13.3-35.1l-0.9-2.3c-0.7-1.8-2.7-2.7-4.4-2.1c-1.8,0.7-2.7,2.6-2,4.4l23.1,61c0.7,1.8,2.7,2.7,4.4,2.1c1.8-0.7,2.7-2.6,2-4.4
			l-4-10.5c-0.7-1.8,0.2-3.8,2-4.4c1.8-0.7,3.8,0.3,4.4,2.1l4.8,12.8l10,26.3c0.7,1.8,2.7,2.7,4.4,2.1l0,0c1.8-0.7,2.7-2.6,2-4.4
			l-23.1-61C763,112.9,761,112,759.3,112.7z"/>
	</g>
	<path class="st5" d="M659.7-136.4L659.7-136.4c-1.8,0.7-3.8-0.3-4.4-2.1l-4.5-11.9c-0.7-1.8,0.2-3.8,2-4.4l0,0
		c1.8-0.7,3.8,0.3,4.4,2.1l4.5,11.9C662.4-139.1,661.5-137.1,659.7-136.4z"/>
	<path class="st10" d="M673.4-42.3L673.4-42.3c-1.8,0.7-3.8-0.3-4.4-2.1l-4.5-11.9c-0.7-1.8,0.2-3.8,2-4.4l0,0
		c1.8-0.7,3.8,0.3,4.4,2.1l4.5,11.9C676-44.9,675.2-43,673.4-42.3z"/>
	<g>
		<path class="st10" d="M684.6-34.8c0.7,1.7-0.2,3.6-1.9,4.3c-1.7,0.7-2.6,2.6-2,4.3l23.1,61.1c0.7,1.8,2.7,2.7,4.4,2.1l0,0
			c1.8-0.7,2.7-2.6,2-4.4l-3.3-8.7c-0.7-1.8,0.1-3.8,1.8-4.5c1.8-0.8,3.9,0.2,4.6,2l4.2,11l0,0l9.1,24.1l1.4,3.8c0,0,0,0,0.1,0.1
			c4,2.2,6.8-1.1,5.8-3.9l-16.1-42.6c-0.7-1.8,0.2-3.8,1.9-4.4c1.8-0.7,2.7-2.6,2-4.4l-23-60.9c-0.7-1.8-2.6-2.8-4.3-2.2
			c-1.9,0.6-2.8,2.6-2.1,4.5l15.4,40.8c0.7,1.8-0.2,3.8-2,4.4l0,0c-1.8,0.7-3.8-0.3-4.4-2.1l-6.9-18.2L688.5-44
			c-0.7-1.8-2.7-2.7-4.5-2.1l0,0c-1.8,0.7-2.7,2.7-2,4.5L684.6-34.8z"/>
	</g>
	<g>
		<line class="st11" x1="796.4" y1="161.5" x2="783.9" y2="128.5"/>
		<line class="st11" x1="782.2" y1="124.6" x2="777.4" y2="111.9"/>
	</g>
	<g>
		<line class="st11" x1="783.6" y1="201" x2="771.1" y2="168"/>
		<line class="st11" x1="769.3" y1="164.1" x2="764.5" y2="151.4"/>
	</g>
	<g>
		<line class="st11" x1="762.3" y1="172.5" x2="757.5" y2="159.8"/>
	</g>
	<g>
		<line class="st11" x1="770.1" y1="121.7" x2="765.3" y2="109"/>
	</g>
	<g>
		<line class="st11" x1="703.1" y1="-5" x2="698.3" y2="-17.6"/>
	</g>
	<g>
		<line class="st11" x1="684" y1="-69.3" x2="671.6" y2="-102.4"/>
		<line class="st11" x1="669.8" y1="-106.3" x2="665" y2="-119"/>
	</g>
	<g>
		<line class="st11" x1="751.1" y1="131.4" x2="721.1" y2="52.3"/>
		<line class="st11" x1="717.2" y1="42.7" x2="705.7" y2="12.4"/>
	</g>
	<g>
		<line class="st11" x1="758.1" y1="67.1" x2="745.6" y2="34.1"/>
		<line class="st11" x1="743.8" y1="30.2" x2="720.4" y2="-31.6"/>
	</g>
	<path class="st10" d="M719.4,17.3L719.4,17.3c-1.8,0.7-3.8-0.3-4.4-2.1l-4.5-11.9c-0.7-1.8,0.2-3.8,2-4.4l0,0
		c1.8-0.7,3.8,0.3,4.4,2.1l4.5,11.9C722.1,14.6,721.2,16.6,719.4,17.3z"/>
</g>
<g>
	<path class="st5" d="M810.6,148.7L810.6,148.7c-1.8,0.7-3.8-0.3-4.4-2.1l-4.5-11.9c-0.7-1.8,0.2-3.8,2-4.4l0,0
		c1.8-0.7,3.8,0.3,4.4,2.1l4.5,11.9C813.2,146,812.3,148,810.6,148.7z"/>
	<path class="st6" d="M737.3,13.4L737.3,13.4c-1.8,0.7-3.8-0.3-4.4-2.1l-4.5-11.9c-0.7-1.8,0.2-3.8,2-4.4v0c1.8-0.7,3.8,0.3,4.4,2.1
		l4.5,11.9C739.9,10.7,739,12.7,737.3,13.4z"/>
	<g>
		<path class="st7" d="M738.3,51.9c0.7,1.8-0.2,3.8-2,4.4l0,0c-1.8,0.7-3.8-0.3-4.4-2.1l-10.7-28.4c-0.3-0.7-0.8-1.4-1.4-1.8
			c-0.8-0.5-1.9-0.7-2.8-0.4c-1.9,0.6-2.8,2.6-2.1,4.5l23,60.9c0.6,1.7,2.4,2.7,4.1,2.3c2-0.5,3.1-2.6,2.3-4.5l-3.9-10.4
			c-0.6-1.7,0-3.6,1.6-4.4c1.7-0.8,3.6-0.1,4.5,1.4l6.5,17.1c0.1,0.2,0.2,0.4,0.3,0.5l8.3,22c0.7,1.8,2.7,2.7,4.4,2.1l0,0
			c1.5-0.5,2.3-2,2.2-3.5l-12.9-34.2c-0.7-1.8,0.2-3.8,2-4.4l0,0c1.8-0.7,3.8,0.3,4.4,2.1l16.7,44.2c0.6,1.7,2.4,2.6,4.1,2.2
			c0.1,0,0.1,0,0.2-0.1l0,0c1.8-0.7,3.8,0.3,4.4,2.1l6.1,16.1c0.6,1.7,2.4,2.7,4.1,2.3c2-0.5,3.1-2.6,2.3-4.5l-23.1-61
			c-0.7-1.8-2.6-2.7-4.4-2.1c-1.8,0.6-3.8-0.2-4.5-2.1l-6.2-16.3c-0.7-1.7-2.6-2.6-4.3-2l0,0c-1.7,0.6-3.6-0.3-4.3-2l-1.7-4.4
			c-0.7-1.8-2.7-2.7-4.5-2.1c-1.8,0.6-3.7-0.3-4.4-2.1l-5.5-14.6c-1-2.6-2.4-4.6-5-3.6c-1.1,0.4-2.8,2.1-1.9,4.4L738.3,51.9z"/>
	</g>
	<g>
		<path class="st12" d="M694.5-78.6L694.5-78.6c-1.8,0.7-2.7,2.6-2,4.4l3.3,8.8c0.7,1.8-0.2,3.8-2,4.4c-1.8,0.7-3.8-0.3-4.4-2.1
			l-13.3-35.1l-0.9-2.3c-0.7-1.8-2.7-2.7-4.4-2.1c-1.8,0.7-2.7,2.6-2,4.4l23.1,61c0.7,1.8,2.7,2.7,4.4,2.1c1.8-0.7,2.7-2.6,2-4.4
			l-4-10.5c-0.7-1.8,0.2-3.8,2-4.4c1.8-0.7,3.8,0.3,4.4,2.1l4.8,12.8l10,26.3c0.7,1.8,2.7,2.7,4.4,2.1l0,0c1.8-0.7,2.7-2.6,2-4.4
			l-23.1-61C698.2-78.3,696.2-79.2,694.5-78.6z"/>
	</g>
	<g>
		<path class="st13" d="M758.2,112.7L758.2,112.7c-1.8,0.7-2.7,2.6-2,4.4l3.3,8.8c0.7,1.8-0.2,3.8-2,4.4c-1.8,0.7-3.8-0.3-4.4-2.1
			l-13.3-35.1l-0.9-2.3c-0.7-1.8-2.7-2.7-4.4-2.1c-1.8,0.7-2.7,2.6-2,4.4l23.1,61c0.7,1.8,2.7,2.7,4.4,2.1c1.8-0.7,2.7-2.6,2-4.4
			l-4-10.5c-0.7-1.8,0.2-3.8,2-4.4c1.8-0.7,3.8,0.3,4.4,2.1l4.8,12.8l10,26.3c0.7,1.8,2.7,2.7,4.4,2.1l0,0c1.8-0.7,2.7-2.6,2-4.4
			l-23.1-61C762,112.9,760,112,758.2,112.7z"/>
	</g>
	<path class="st5" d="M658.7-136.4L658.7-136.4c-1.8,0.7-3.8-0.3-4.4-2.1l-4.5-11.9c-0.7-1.8,0.2-3.8,2-4.4l0,0
		c1.8-0.7,3.8,0.3,4.4,2.1l4.5,11.9C661.3-139.1,660.5-137.1,658.7-136.4z"/>
	<path class="st6" d="M672.3-42.3L672.3-42.3c-1.8,0.7-3.8-0.3-4.4-2.1l-4.5-11.9c-0.7-1.8,0.2-3.8,2-4.4l0,0
		c1.8-0.7,3.8,0.3,4.4,2.1l4.5,11.9C675-44.9,674.1-43,672.3-42.3z"/>
	<g>
		<path class="st1" d="M683.5-34.8c0.7,1.7-0.2,3.6-1.9,4.3c-1.7,0.7-2.6,2.6-2,4.3l23.1,61.1c0.7,1.8,2.7,2.7,4.4,2.1v0
			c1.8-0.7,2.7-2.6,2-4.4l-3.3-8.7c-0.7-1.8,0.1-3.8,1.8-4.5c1.8-0.8,3.9,0.2,4.6,2l4.2,11l0,0l9.1,24.1l1.4,3.8c0,0,0,0,0.1,0.1
			c4,2.2,6.8-1.1,5.8-3.9l-16.1-42.6c-0.7-1.8,0.2-3.8,1.9-4.4c1.8-0.7,2.7-2.6,2-4.4l-23-60.9c-0.7-1.8-2.6-2.8-4.3-2.2
			c-1.9,0.6-2.8,2.6-2.1,4.5l15.4,40.8c0.7,1.8-0.2,3.8-2,4.4l0,0c-1.8,0.7-3.8-0.3-4.4-2.1l-6.9-18.2L687.4-44
			c-0.7-1.8-2.7-2.7-4.5-2.1l0,0c-1.8,0.7-2.7,2.7-2,4.5L683.5-34.8z"/>
	</g>
	<g>
		<line class="st14" x1="795.4" y1="161.5" x2="782.9" y2="128.5"/>
		<line class="st14" x1="781.1" y1="124.6" x2="776.3" y2="111.9"/>
	</g>
	<g>
		<line class="st14" x1="782.6" y1="201" x2="770.1" y2="168"/>
		<line class="st14" x1="768.3" y1="164.1" x2="763.5" y2="151.4"/>
	</g>
	<g>
		<line class="st14" x1="761.3" y1="172.5" x2="756.5" y2="159.8"/>
	</g>
	<g>
		<line class="st14" x1="769.1" y1="121.7" x2="764.3" y2="109"/>
	</g>
	<g>
		<line class="st14" x1="702.1" y1="-5" x2="697.3" y2="-17.6"/>
	</g>
	<g>
		<line class="st14" x1="683" y1="-69.3" x2="670.5" y2="-102.4"/>
		<line class="st14" x1="668.7" y1="-106.3" x2="663.9" y2="-119"/>
	</g>
	<g>
		<line class="st14" x1="750" y1="131.4" x2="720.1" y2="52.3"/>
		<line class="st14" x1="716.2" y1="42.7" x2="704.7" y2="12.4"/>
	</g>
	<g>
		<line class="st14" x1="757" y1="67.1" x2="744.5" y2="34.1"/>
		<line class="st14" x1="742.8" y1="30.2" x2="719.4" y2="-31.6"/>
	</g>
	<path class="st7" d="M718.4,17.3L718.4,17.3c-1.8,0.7-3.8-0.3-4.4-2.1l-4.5-11.9c-0.7-1.8,0.2-3.8,2-4.4l0,0
		c1.8-0.7,3.8,0.3,4.4,2.1l4.5,11.9C721,14.6,720.2,16.6,718.4,17.3z"/>
</g>
<g>
	<path class="st5" d="M-602.7,474.8L-602.7,474.8c0,1.8-1.5,3.2-3.4,3.2l-12.1-0.1c-1.8,0-3.3-1.5-3.2-3.3l0,0
		c0-1.8,1.5-3.2,3.4-3.2l12.1,0.1C-604.1,471.5-602.6,473-602.7,474.8z"/>
	<path class="st6" d="M-479.6,448.8L-479.6,448.8c0,1.8-1.5,3.2-3.4,3.2l-12.1-0.1c-1.8,0-3.3-1.5-3.2-3.3h0c0-1.8,1.5-3.2,3.4-3.2
		l12.1,0.1C-481,445.6-479.6,447-479.6,448.8z"/>
	<path class="st6" d="M-525.6,442.3L-525.6,442.3c0,1.8-1.5,3.2-3.4,3.2l-12.1-0.1c-1.8,0-3.3-1.5-3.2-3.3l0,0
		c0-1.8,1.5-3.2,3.4-3.2l12.1,0.1C-527.1,439-525.6,440.5-525.6,442.3z"/>
	<g>
		<path class="st7" d="M-479.2,468.4c1.8,0,3.3,1.5,3.2,3.3l0,0c0,1.8-1.5,3.2-3.4,3.2l-28.8-0.4c-0.7,0-1.5,0.2-2.1,0.6
			c-0.8,0.5-1.3,1.4-1.4,2.4c-0.1,1.9,1.4,3.4,3.2,3.4l61.9,0.8c1.7,0,3.2-1.2,3.4-2.8c0.3-2-1.3-3.6-3.2-3.7l-10.6-0.1
			c-1.7,0-3.2-1.3-3.3-2.9c-0.2-1.8,1.1-3.2,2.8-3.5l17.4,0.2c0.2,0,0.4,0,0.6,0l22.4,0.3c1.8,0,3.3-1.4,3.4-3.2l0,0
			c0-1.5-1-2.7-2.3-3.1l-34.7-0.4c-1.8,0-3.3-1.5-3.2-3.3l0,0c0-1.8,1.5-3.2,3.4-3.2l44.9,0.5c1.7,0,3.2-1.2,3.3-2.9
			c0-0.1,0-0.1,0-0.2l0,0c0-1.8,1.5-3.2,3.4-3.2l16.3,0.2c1.7,0,3.2-1.2,3.4-2.8c0.3-2-1.3-3.6-3.2-3.7l-62-0.8
			c-1.8,0-3.3,1.4-3.4,3.2c-0.1,1.8-1.5,3.3-3.4,3.2l-16.5-0.2c-1.8,0-3.2,1.4-3.3,3.1l0,0c0,1.7-1.5,3.1-3.3,3.1l-4.4-0.1
			c-1.8,0-3.3,1.4-3.4,3.2c-0.1,1.8-1.6,3.2-3.4,3.2l-14.8-0.2c-2.7,0-4.9,0.6-4.9,3.2c0,1.1,0.9,3.2,3.2,3.2L-479.2,468.4z"/>
	</g>
	<g>
		<path class="st5" d="M-607.1,439.9L-607.1,439.9c0,1.8,1.4,3.3,3.2,3.3l8.9,0.1c1.8,0,3.3,1.5,3.2,3.3c0,1.8-1.5,3.2-3.4,3.2
			l-35.6-0.4l-2.3,0c-1.8,0-3.3,1.4-3.4,3.2c0,1.8,1.4,3.3,3.2,3.3l62,0.8c1.8,0,3.3-1.4,3.4-3.2c0-1.8-1.4-3.3-3.2-3.3l-10.7-0.1
			c-1.8,0-3.3-1.5-3.2-3.3c0-1.8,1.5-3.2,3.4-3.2l13,0.2l26.7,0.3c1.8,0,3.3-1.4,3.4-3.2l0,0c0-1.8-1.4-3.3-3.2-3.3l-62-0.8
			C-605.5,436.7-607,438.2-607.1,439.9z"/>
	</g>
	<g>
		<path class="st6" d="M-418.5,471.9L-418.5,471.9c0,1.8,1.4,3.3,3.2,3.3l8.9,0.1c1.8,0,3.3,1.5,3.2,3.3c0,1.8-1.5,3.2-3.4,3.2
			l-35.6-0.4l-2.3,0c-1.8,0-3.3,1.4-3.4,3.2c0,1.8,1.4,3.3,3.2,3.3l62,0.8c1.8,0,3.3-1.4,3.4-3.2c0-1.8-1.4-3.3-3.2-3.3l-10.7-0.1
			c-1.8,0-3.3-1.5-3.2-3.3c0-1.8,1.5-3.2,3.4-3.2l13,0.2l26.7,0.3c1.8,0,3.3-1.4,3.4-3.2l0,0c0-1.8-1.4-3.3-3.2-3.3l-62-0.8
			C-417,468.7-418.5,470.1-418.5,471.9z"/>
	</g>
	<path class="st5" d="M-321.2,459.5L-321.2,459.5c0,1.8-1.5,3.2-3.4,3.2l-12.1-0.1c-1.8,0-3.3-1.5-3.2-3.3l0,0
		c0-1.8,1.5-3.2,3.4-3.2l12.1,0.1C-322.7,456.3-321.2,457.7-321.2,459.5z"/>
	<path class="st6" d="M-575.7,494.1L-575.7,494.1c0,1.8-1.5,3.2-3.4,3.2l-12.1-0.1c-1.8,0-3.3-1.5-3.2-3.3l0,0
		c0-1.8,1.5-3.2,3.4-3.2l12.1,0.1C-577.1,490.9-575.6,492.3-575.7,494.1z"/>
	<g>
		<path class="st6" d="M-576.9,480.3c1.8,0,3.2,1.4,3.1,3.2c0,1.8,1.4,3.2,3.2,3.2l62,0.8c1.8,0,3.3-1.4,3.4-3.2h0
			c0-1.8-1.4-3.3-3.2-3.3l-8.8-0.1c-1.8,0-3.3-1.4-3.3-3.1c0-1.9,1.5-3.4,3.4-3.3l11.1,0.1l0,0l24.5,0.3l3.9,0c0,0,0,0,0.1,0
			c3.3-2.8,1.4-6.4-1.5-6.5l-43.2-0.5c-1.8,0-3.3-1.5-3.2-3.2c0-1.8-1.4-3.3-3.2-3.3l-61.9-0.8c-1.8,0-3.3,1.3-3.5,3
			c-0.1,1.9,1.4,3.4,3.2,3.4l41.5,0.5c1.8,0,3.3,1.5,3.2,3.3l0,0c0,1.8-1.5,3.2-3.4,3.2l-18.4-0.2l-15.6-0.1c-1.8,0-3.3,1.4-3.4,3.2
			l0,0c0,1.8,1.4,3.3,3.3,3.3L-576.9,480.3z"/>
	</g>
	<g>
		<line class="st9" x1="-362.4" y1="456" x2="-395.9" y2="455.6"/>
		<line class="st9" x1="-400" y1="455.8" x2="-412.9" y2="455.6"/>
	</g>
	<g>
		<line class="st9" x1="-331.9" y1="481" x2="-365.5" y2="480.6"/>
		<line class="st9" x1="-369.5" y1="480.8" x2="-382.4" y2="480.7"/>
	</g>
	<g>
		<line class="st9" x1="-436.2" y1="493.7" x2="-469.8" y2="493.3"/>
		<line class="st9" x1="-473.9" y1="493.5" x2="-486.8" y2="493.4"/>
	</g>
	<g>
		<line class="st9" x1="-459.2" y1="457.1" x2="-492.7" y2="456.7"/>
		<line class="st9" x1="-496.8" y1="457" x2="-559.6" y2="456.2"/>
	</g>
	<path class="st5" d="M-514.7,498.7L-514.7,498.7c0,1.8-1.5,3.2-3.4,3.2l-62-0.8c-1.8,0-3.3-1.5-3.2-3.3l0,0c0-1.8,1.5-3.2,3.4-3.2
		l62,0.8C-516.2,495.4-514.7,496.9-514.7,498.7z"/>
</g>
<g>
	<g>
		<path d="M57,114.7h2.3v10.8c0,1.6,0.4,2.8,1.1,3.7c0.7,0.9,1.8,1.3,3.2,1.3c1.4,0,2.4-0.4,3.2-1.2c0.8-0.8,1.1-1.9,1.1-3.4v-11.3
			h2.3v11.1c0,2.2-0.6,3.9-1.8,5.2c-1.2,1.3-2.8,1.9-4.8,1.9c-2,0-3.7-0.7-4.9-2c-1.2-1.3-1.8-3.2-1.8-5.8V114.7z"/>
		<polygon points="73.6,113.9 86.2,127.3 86.2,114.6 88.6,114.6 88.6,133.1 75.9,119.7 75.9,132.3 73.6,132.3 		"/>
		<rect x="92" y="114.6" width="2.3" height="17.6"/>
		<polygon points="96.7,114.7 99.1,114.7 104.5,127.2 109.9,114.7 112.4,114.7 104.5,132.9 		"/>
		<polygon points="114.5,114.6 124,114.6 124,117 116.8,117 116.8,121.4 124,121.4 124,123.8 116.8,123.8 116.8,129.9 124,129.9 
			124,132.3 114.5,132.3 		"/>
		<path d="M127.1,114.6h3.7c1.8,0,3.3,0.5,4.5,1.4c1.2,0.9,1.7,2.2,1.7,3.6c0,1.2-0.4,2.2-1.1,3.1c-0.8,0.9-1.9,1.5-3.5,1.9l5,7.5
			h-2.7L130,125h-0.5v7.3h-2.3V114.6z M129.4,116.8v6.1c3.4,0.1,5.2-1,5.2-3.1c0-0.7-0.2-1.4-0.6-1.8c-0.4-0.5-0.9-0.8-1.6-1
			C131.7,116.9,130.7,116.8,129.4,116.8"/>
		<path d="M150.9,116.6l-1.9,1.6c-0.5-0.5-1-0.9-1.4-1.2c-0.4-0.3-1-0.4-1.8-0.4c-0.8,0-1.5,0.2-2,0.6c-0.5,0.4-0.8,0.9-0.8,1.5
			c0,0.5,0.2,1,0.7,1.4c0.5,0.4,1.2,0.9,2.3,1.3c1.1,0.5,2,0.9,2.6,1.4c0.6,0.4,1.1,0.9,1.5,1.4c0.4,0.5,0.7,1,0.9,1.6
			c0.2,0.6,0.3,1.2,0.3,1.8c0,1.5-0.5,2.7-1.6,3.7c-1,1-2.3,1.5-3.8,1.5c-1.4,0-2.7-0.4-3.8-1.2c-1.1-0.8-1.9-2-2.5-3.6l2.3-0.7
			c0.9,2,2.2,3,3.9,3c0.8,0,1.6-0.3,2.1-0.8c0.6-0.5,0.8-1.2,0.8-2c0-0.5-0.1-1-0.4-1.4c-0.3-0.5-0.7-0.9-1.1-1.2
			c-0.4-0.3-1.1-0.7-2.1-1.1c-1-0.4-1.7-0.8-2.2-1.1s-1-0.7-1.3-1.2c-0.4-0.5-0.7-0.9-0.8-1.4c-0.2-0.5-0.3-1-0.3-1.5
			c0-1.3,0.5-2.3,1.5-3.2c1-0.9,2.2-1.3,3.6-1.3c0.9,0,1.9,0.2,2.8,0.6C149.5,115.1,150.3,115.8,150.9,116.6"/>
		<rect x="154.2" y="114.6" width="2.3" height="17.6"/>
		<path d="M160.3,114.6h4.1c3.3,0,5.7,0.9,7.3,2.7c1.6,1.8,2.4,3.8,2.4,6.1c0,2.3-0.8,4.4-2.5,6.1c-1.7,1.8-4.1,2.7-7.2,2.7h-4.2
			V114.6z M162.6,117v12.9h0.1c1.7,0,3-0.1,3.9-0.2c0.9-0.2,1.7-0.5,2.5-1.1c0.8-0.5,1.4-1.3,1.9-2.2c0.5-0.9,0.7-1.9,0.7-3
			c0-1.4-0.4-2.6-1.1-3.7c-0.7-1.1-1.6-1.8-2.7-2.2c-1-0.4-2.4-0.6-4.2-0.6H162.6z"/>
		<path d="M182.7,114l8.1,18.3h-2.4l-2-4.5h-7.3l-2,4.5h-2.4L182.7,114z M182.7,119.5l-2.7,6.3h5.5L182.7,119.5z"/>
		<path d="M193,114.6h4.1c3.3,0,5.7,0.9,7.3,2.7c1.6,1.8,2.4,3.8,2.4,6.1c0,2.3-0.8,4.4-2.5,6.1c-1.7,1.8-4.1,2.7-7.2,2.7H193V114.6
			z M195.3,117v12.9h0.1c1.7,0,3-0.1,3.9-0.2c0.9-0.2,1.7-0.5,2.5-1.1c0.8-0.5,1.4-1.3,1.9-2.2c0.5-0.9,0.7-1.9,0.7-3
			c0-1.4-0.4-2.6-1.1-3.7c-0.7-1.1-1.6-1.8-2.7-2.2c-1-0.4-2.4-0.6-4.2-0.6H195.3z"/>
	</g>
	<g>
		<polygon points="56.9,139.8 61.8,139.8 61.8,141.1 58.1,141.1 58.1,143.3 61.8,143.3 61.8,144.6 58.1,144.6 58.1,148.9 
			56.9,148.9 		"/>
		<polygon points="63.4,139.8 64.6,139.8 64.6,147.7 67.5,147.7 67.5,148.9 63.4,148.9 		"/>
		<path d="M68.2,144.3c0-1.3,0.5-2.4,1.4-3.4c1-0.9,2.1-1.4,3.5-1.4c1.3,0,2.5,0.5,3.4,1.4c1,0.9,1.4,2.1,1.4,3.4
			c0,1.4-0.5,2.5-1.4,3.5c-0.9,1-2.1,1.4-3.5,1.4c-1.4,0-2.5-0.5-3.5-1.4C68.7,146.9,68.2,145.7,68.2,144.3 M76.7,144.4
			c0-1-0.4-1.9-1.1-2.5c-0.7-0.7-1.6-1-2.6-1c-1,0-1.8,0.4-2.5,1.1c-0.7,0.7-1,1.5-1,2.5c0,1,0.4,1.8,1.1,2.5c0.7,0.7,1.6,1,2.6,1
			c1,0,1.8-0.4,2.5-1.1C76.3,146.2,76.7,145.4,76.7,144.4"/>
		<path d="M79.7,139.8h1.9c1,0,1.7,0.2,2.3,0.7c0.6,0.5,0.9,1.1,0.9,1.9c0,0.6-0.2,1.2-0.6,1.6c-0.4,0.5-1,0.8-1.8,1l2.6,3.9h-1.4
			l-2.5-3.8h-0.3v3.8h-1.2V139.8z M80.9,140.9v3.2c1.8,0,2.7-0.5,2.7-1.6c0-0.4-0.1-0.7-0.3-0.9c-0.2-0.2-0.5-0.4-0.8-0.5
			C82.1,141,81.6,140.9,80.9,140.9"/>
		<polygon points="86.5,139.8 91.4,139.8 91.4,141.1 87.7,141.1 87.7,143.3 91.4,143.3 91.4,144.6 87.7,144.6 87.7,147.7 
			91.4,147.7 91.4,148.9 86.5,148.9 		"/>
		<polygon points="92.8,139.5 99.3,146.4 99.3,139.8 100.5,139.8 100.5,149.4 94,142.5 94,148.9 92.8,148.9 		"/>
		<path d="M109.5,140.1v1.4c-1-0.5-1.8-0.7-2.6-0.7c-1,0-1.9,0.3-2.6,1c-0.7,0.7-1.1,1.5-1.1,2.5c0,1,0.4,1.9,1.1,2.5
			c0.7,0.7,1.6,1,2.7,1c0.8,0,1.6-0.3,2.5-0.8v1.4c-0.8,0.4-1.7,0.7-2.6,0.7c-1.4,0-2.5-0.5-3.5-1.4c-1-1-1.5-2.1-1.5-3.5
			c0-1.3,0.5-2.5,1.4-3.4c1-0.9,2.1-1.4,3.5-1.4C107.7,139.5,108.6,139.7,109.5,140.1"/>
		<rect x="110.9" y="139.8" width="1.2" height="9.1"/>
		<path d="M113.7,144.3c0-1.3,0.5-2.4,1.4-3.4c1-0.9,2.1-1.4,3.5-1.4c1.3,0,2.5,0.5,3.4,1.4c1,0.9,1.4,2.1,1.4,3.4
			c0,1.4-0.5,2.5-1.4,3.5c-0.9,1-2.1,1.4-3.5,1.4c-1.4,0-2.5-0.5-3.5-1.4C114.2,146.9,113.7,145.7,113.7,144.3 M122.2,144.4
			c0-1-0.4-1.9-1.1-2.5c-0.7-0.7-1.6-1-2.6-1c-1,0-1.8,0.4-2.5,1.1c-0.7,0.7-1,1.5-1,2.5c0,1,0.4,1.8,1.1,2.5c0.7,0.7,1.6,1,2.6,1
			c1,0,1.8-0.4,2.5-1.1C121.8,146.2,122.2,145.4,122.2,144.4"/>
		<path d="M129,139.8h2.1c1.7,0,3,0.5,3.8,1.4c0.8,0.9,1.2,2,1.2,3.2c0,1.2-0.4,2.3-1.3,3.2c-0.9,0.9-2.1,1.4-3.7,1.4H129V139.8z
			 M130.2,141v6.7h0.1c0.9,0,1.6,0,2-0.1c0.5-0.1,0.9-0.3,1.3-0.5c0.4-0.3,0.7-0.7,1-1.1c0.2-0.5,0.4-1,0.4-1.5
			c0-0.7-0.2-1.3-0.6-1.9c-0.4-0.6-0.8-0.9-1.4-1.1c-0.5-0.2-1.3-0.3-2.2-0.3H130.2z"/>
		<polygon points="137.4,139.8 142.3,139.8 142.3,141.1 138.6,141.1 138.6,143.3 142.3,143.3 142.3,144.6 138.6,144.6 138.6,147.7 
			142.3,147.7 142.3,148.9 137.4,148.9 		"/>
		<polygon points="143.9,139.8 145.1,139.8 145.1,147.7 148,147.7 148,148.9 143.9,148.9 		"/>
		<path d="M160.3,140.1v1.4c-1-0.5-1.8-0.7-2.6-0.7c-1,0-1.9,0.3-2.6,1c-0.7,0.7-1.1,1.5-1.1,2.5c0,1,0.4,1.9,1.1,2.5
			c0.7,0.7,1.6,1,2.7,1c0.8,0,1.6-0.3,2.5-0.8v1.4c-0.8,0.4-1.7,0.7-2.6,0.7c-1.4,0-2.5-0.5-3.5-1.4c-1-1-1.5-2.1-1.5-3.5
			c0-1.3,0.5-2.5,1.4-3.4c1-0.9,2.1-1.4,3.5-1.4C158.5,139.5,159.4,139.7,160.3,140.1"/>
		<path d="M165.1,139.5l4.2,9.5H168l-1-2.3h-3.8l-1,2.3h-1.3L165.1,139.5z M165.1,142.3l-1.4,3.3h2.8L165.1,142.3z"/>
		<path d="M175.7,140.8l-1,0.8c-0.3-0.3-0.5-0.5-0.7-0.6c-0.2-0.1-0.5-0.2-0.9-0.2c-0.4,0-0.8,0.1-1.1,0.3c-0.3,0.2-0.4,0.5-0.4,0.8
			c0,0.3,0.1,0.5,0.4,0.7c0.2,0.2,0.6,0.4,1.2,0.7c0.6,0.3,1,0.5,1.3,0.7c0.3,0.2,0.6,0.5,0.8,0.7c0.2,0.3,0.4,0.5,0.5,0.8
			c0.1,0.3,0.1,0.6,0.1,0.9c0,0.8-0.3,1.4-0.8,1.9c-0.5,0.5-1.2,0.8-1.9,0.8c-0.7,0-1.4-0.2-2-0.6c-0.6-0.4-1-1-1.3-1.9l1.2-0.4
			c0.4,1,1.1,1.5,2,1.5c0.4,0,0.8-0.1,1.1-0.4c0.3-0.3,0.4-0.6,0.4-1c0-0.2-0.1-0.5-0.2-0.7c-0.2-0.2-0.3-0.5-0.6-0.6
			c-0.2-0.2-0.6-0.3-1.1-0.6c-0.5-0.2-0.9-0.4-1.1-0.6c-0.3-0.2-0.5-0.4-0.7-0.6c-0.2-0.2-0.3-0.5-0.4-0.7c-0.1-0.2-0.1-0.5-0.1-0.8
			c0-0.7,0.3-1.2,0.8-1.7c0.5-0.5,1.1-0.7,1.9-0.7c0.5,0,1,0.1,1.5,0.3C175,140.1,175.4,140.4,175.7,140.8"/>
		<polygon points="176.9,139.8 182.3,139.8 182.3,141.1 180.2,141.1 180.2,148.9 179,148.9 179,141.1 176.9,141.1 		"/>
		<rect x="183.7" y="139.8" width="1.2" height="9.1"/>
		<polygon points="187,139.8 188.2,139.8 188.2,147.7 191.1,147.7 191.1,148.9 187,148.9 		"/>
		<polygon points="192.5,139.8 193.6,139.8 193.6,147.7 196.5,147.7 196.5,148.9 192.5,148.9 		"/>
		<path d="M197.2,144.3c0-1.3,0.5-2.4,1.4-3.4c1-0.9,2.1-1.4,3.5-1.4c1.3,0,2.5,0.5,3.4,1.4c1,0.9,1.4,2.1,1.4,3.4
			c0,1.4-0.5,2.5-1.4,3.5c-0.9,1-2.1,1.4-3.5,1.4c-1.4,0-2.5-0.5-3.5-1.4C197.7,146.9,197.2,145.7,197.2,144.3 M205.7,144.4
			c0-1-0.4-1.9-1.1-2.5c-0.7-0.7-1.6-1-2.6-1c-1,0-1.8,0.4-2.5,1.1c-0.7,0.7-1,1.5-1,2.5c0,1,0.4,1.8,1.1,2.5c0.7,0.7,1.6,1,2.6,1
			c1,0,1.8-0.4,2.5-1.1C205.4,146.2,205.7,145.4,205.7,144.4"/>
	</g>
	<g>
		<g>
			<g>
				<path class="st15" d="M110.8,105.4L110.8,105.4L110.8,105.4z M190.5,44c-1.1-5.6-7.2-8.8-17.5-9.3c-1.3-0.1-2.7-0.1-4.2,0l0,0.1
					c1.5,0,2.9,0,4.2,0c6,0.5,9.5,2.7,10.2,6.6c0.8,4.7-2.8,11.4-10,18.2c-7.8,7.4-18.9,14.3-31.3,19.4c-5.5,2.2-10.5,3.3-15.2,3.3
					c-2,0-4.1-0.2-6-0.6c-4.8-1-7.6-3.5-8.1-7.3c-0.7-5.2,2.9-12.7,10.1-20.4c7.6-8.2,18.6-16.1,30.8-22.2c2-1,4-1.9,6.1-2.8
					l-0.1-0.1c-2,0.9-4.1,1.8-6.1,2.8h0C132.3,42,115.2,53.8,103.9,66C94,76.8,89.3,87.3,91.2,94.7c1.7,6.9,8.7,10.7,19.6,10.7h0
					c6.3,0,12-1.3,18.9-4.3c16.1-7,32.2-17.4,44.1-28.6C185.8,61.4,191.9,51,190.5,44"/>
			</g>
		</g>
		<g>
			<g>
				<path class="st16" d="M189.4,32c-0.9-0.4-1.9-0.7-3-1l0,0.1c1.1,0.3,2.1,0.6,3,1c3.1,1.4,4.5,3.8,4.2,7
					c-0.5,5.7-6.6,13.6-16.2,21c-10.5,8.1-23.5,14.6-36.7,18.3c-2.6,0.7-5.3,1.1-7.7,1.1c-3.1,0-5.8-0.6-8-1.9
					c-2.7-1.6-3.9-4-3.6-7.2c0.6-6.3,6.9-15,17.2-23.8c10.9-9.3,24.6-17.3,38.4-22.4c2-0.7,4-1.4,6-2l0-0.1c0,0,0,0,0,0
					c-2,0.6-4,1.3-6.1,2c-22.8,8-44,19.9-59.6,33.3c-14,12-22.5,24.2-23.2,33.5c-0.4,5.1,1.7,8.9,6,11.2c2.9,1.5,5.8,2.3,8.9,2.3
					c2,0,4.2-0.3,6.6-1c17.2-4.7,37.5-14.8,54.2-27c8-5.9,14.8-12,19.6-17.6c5.2-6.1,7.9-11.4,8.2-15.9
					C197.8,37.9,195.1,34.2,189.4,32"/>
			</g>
		</g>
		<g>
			<g>
				<path class="st17" d="M204.8,31c-0.2-0.3-0.4-0.6-0.6-0.9l-0.3-0.4l0.1,0.2c-0.2-0.3-0.5-0.5-0.8-0.8l-0.1,0.1
					c0.6,0.6,1.1,1.2,1.6,1.9c1.4,2.4,1.1,5.5-1,9.3c-7.6,14-37.1,33.1-62.4,35.8c-0.5,0.1-1.1,0.1-1.6,0.1h0
					c-2.6,0-7.1-0.7-8.4-5.5c-0.7-2.7,0.2-6.1,2.7-10.1c4.6-7.4,14.3-16.2,26.6-24.2c13-8.4,27.1-14.7,39.7-17.7
					c1.9-0.4,3.7-0.8,5.6-1.1l0-0.1c-1.8,0.3-3.7,0.7-5.6,1.1c-23.4,5.1-47.6,16-67.9,30.5c-8.9,6.4-16.7,13.2-22.6,19.8
					c-5.8,6.6-9.6,12.7-10.9,17.9c-1.3,5-0.3,8.8,2.9,11.4c1.8,1.4,3.6,2.1,6,2.1c1.4,0,2.9-0.2,4.6-0.5c15.7-2.4,36.3-10.5,55-21.6
					c19.3-11.5,33.1-23.9,37.7-34C207.5,39.2,207.4,34.7,204.8,31"/>
			</g>
		</g>
		<path class="st18" d="M167.9,56.5v18.9h27.8C191.2,63.3,182,57,167.9,56.5 M167.9,81v24.5h-5.4v-56c29.9,0.2,44.6,18.8,44.3,56
			h-5.3c-0.3-9.6-1.5-17.7-3.7-24.5H167.9z"/>
		<path class="st18" d="M159.8,56.5v-6.8c-21.1,1.5-35.2,4.7-42.3,20.4c0,0-1.3,2.9-1.3,7.5c0,5,1.3,7.5,1.3,7.5
			c7,15.6,21.1,18.8,42.3,20.4v-6.8c-15.8-1.4-27-2.3-33.7-13.5c0,0-1.7-2.4-1.7-7.5c0-4.8,1.7-7.6,1.7-7.6
			C132.8,58.9,144,57.9,159.8,56.5"/>
		<path class="st18" d="M106.5,96.4V34h6.9v71.5c-37,0.6-57-24-56.5-71.5h6.8C64.9,74.6,79.2,95.4,106.5,96.4"/>
	</g>
</g>
<text transform="matrix(1 0 0 1 350.7852 69.2616)"><tspan x="0" y="0" class="st19 st20">Control de </tspan><tspan x="3.1" y="55.1" class="st19 st20">Graduados</tspan></text>
<line class="st21" x1="265" y1="38.5" x2="265" y2="128.5"/>
</svg>
